<svg xmlns="http://www.w3.org/2000/svg" viewBox="0 0 320 160" role="img" aria-labelledby="title">
  <title id="title">Ban Vien logo</title>
  <rect width="320" height="160" fill="#ffffff"/>
  <path d="M210 31c-31 5-57 21-76 48 27-19 56-23 87-13 16 5 30 4 43-5-21 21-45 31-71 30-32-1-57 9-77 32 11-41 42-80 94-92z" fill="#ffc400"/>
  <path d="M251 23c-29 9-48 26-58 51 19-17 39-25 60-24-12-5-13-14-2-27z" fill="#ffc400"/>
  <text x="28" y="92" fill="#050505" font-family="Arial, Helvetica, sans-serif" font-size="48" font-style="italic" font-weight="800">banvien</text>
  <path d="M29 105h156" stroke="#050505" stroke-width="2"/>
  <text x="30" y="124" fill="#333333" font-family="Arial, Helvetica, sans-serif" font-size="14" font-weight="500">Trusted Technology Partner</text>
</svg>
